<svg xmlns="http://www.w3.org/2000/svg" xmlns:xlink="http://www.w3.org/1999/xlink" viewBox="0 0 55 68"><defs><clipPath id="a"><path d="M53.5,125.45a26,26,0,0,1-52,0c0-14.36,11.64-38.9,26-38.9S53.5,111.09,53.5,125.45Z" style="fill:none"/></clipPath><linearGradient id="b" x1="-1685.48" y1="574.58" x2="-1716.24" y2="627.85" gradientTransform="translate(1729.73 -565.47)" gradientUnits="userSpaceOnUse"><stop offset="0" stop-color="#30a89e"/><stop offset="0" stop-color="#32aaa0"/><stop offset="0.5" stop-color="#056473"/><stop offset="1" stop-color="#1e2855"/></linearGradient><clipPath id="c"><path d="M53.5,40.45a26,26,0,0,1-52,0c0-14.36,11.64-38.9,26-38.9S53.5,26.09,53.5,40.45Z" style="fill:none"/></clipPath></defs><title>ei06</title><g style="clip-path:url(#a)"><polygon points="68.88 93.91 62.28 98.11 65.7 105.14 57.86 105.64 58.11 113.48 50.55 111.29 48.58 118.9 41.78 114.93 38.2 121.94 32.33 116.69 27.5 122.91 22.67 116.69 16.8 121.94 13.22 114.93 6.42 118.9 4.45 111.29 -3.11 113.48 -2.86 105.64 -10.7 105.13 -7.28 98.11 -13.88 93.91 -7.17 88.78 -10.92 81.26 -2.89 78.68 -4.6 70.44 3.8 69.75 4 61.33 12.3 62.7 14.81 54.65 22.24 58.58 27.5 52.01 32.76 58.58 40.19 54.65 42.69 62.7 50.99 61.33 51.2 69.75 59.6 70.43 57.89 78.68 65.92 81.27 62.17 88.78 68.88 93.91" style="fill:none;stroke:#1e2855;stroke-miterlimit:10;stroke-width:2px"/><path d="M57.08,69.23c0,14-13.25,25.32-29.58,25.32S-2.08,83.21-2.08,69.23,11.17,31.36,27.5,31.36,57.08,55.25,57.08,69.23Z" style="fill:none;stroke:#1e2855;stroke-miterlimit:10;stroke-width:2px"/><path d="M67.3,82.64c0,12.56-17.19,22.74-38.38,22.74S-9.46,95.2-9.46,82.64s17.18-34,38.38-34S67.3,70.08,67.3,82.64Z" style="fill:none;stroke:#1e2855;stroke-linecap:round;stroke-miterlimit:10;stroke-width:3px;stroke-dasharray:0,6"/></g><path d="M53.5,40.45a26,26,0,0,1-52,0c0-14.36,11.64-38.9,26-38.9S53.5,26.09,53.5,40.45Z" style="fill:url(#b)"/><g style="clip-path:url(#c)"><path d="M65.88,35.29c0,14.36-17.18,26-38.38,26s-38.38-11.64-38.38-26S6.3-3.6,27.5-3.6,65.88,20.93,65.88,35.29Z" style="fill:none;stroke:#32aaa0;stroke-miterlimit:10;stroke-width:2px"/><path d="M65.88,30.13c0,14.36-17.18,26-38.38,26s-38.38-11.64-38.38-26S6.3-8.76,27.5-8.76,65.88,15.77,65.88,30.13Z" style="fill:none;stroke:#beff82;stroke-miterlimit:10;stroke-width:2px"/><polygon points="68.88 8.9 62.28 13.11 65.7 20.14 57.86 20.64 58.11 28.48 50.55 26.29 48.58 33.9 41.78 29.93 38.2 36.94 32.33 31.69 27.5 37.91 22.67 31.69 16.8 36.94 13.22 29.93 6.42 33.9 4.45 26.29 -3.11 28.48 -2.86 20.64 -10.7 20.13 -7.28 13.11 -13.88 8.9 -7.17 3.78 -10.92 -3.74 -2.89 -6.32 -4.6 -14.56 3.8 -15.25 4 -23.67 12.3 -22.3 14.81 -30.35 22.24 -26.43 27.5 -32.99 32.76 -26.43 40.19 -30.35 42.69 -22.3 50.99 -23.67 51.2 -15.25 59.6 -14.57 57.89 -6.32 65.92 -3.73 62.17 3.78 68.88 8.9" style="fill:none;stroke:#beff82;stroke-miterlimit:10;stroke-width:2px"/><path d="M57.08-15.77c0,14-13.25,25.32-29.58,25.32S-2.08-1.79-2.08-15.77,11.17-53.64,27.5-53.64,57.08-29.75,57.08-15.77Z" style="fill:none;stroke:#beff82;stroke-miterlimit:10;stroke-width:2px"/><path d="M64.11,26.4c0,12-16.39,21.7-36.61,21.7S-9.11,38.38-9.11,26.4,7.28-6,27.5-6,64.11,14.42,64.11,26.4Z" style="fill:none;stroke:#32aaa0;stroke-linecap:round;stroke-miterlimit:10;stroke-width:2.5px;stroke-dasharray:0,6"/><path d="M67.3-2.36c0,12.56-17.19,22.74-38.38,22.74S-9.46,10.2-9.46-2.36s17.18-34,38.38-34S67.3-14.92,67.3-2.36Z" style="fill:none;stroke:#beff82;stroke-linecap:round;stroke-miterlimit:10;stroke-width:2.5px;stroke-dasharray:0,6"/></g></svg>